<svg xmlns="http://www.w3.org/2000/svg" viewBox="0 0 960 960" fill="#374151">
	<path d="M60.087051,820.413452 C60.988785,819.963562 61.821602,819.996643 62.654415,819.996643 C342.078766,819.993774 621.503113,819.988586 901.385803,819.964478 C901.844116,847.078674 901.844116,874.211853 901.844116,901.672485 C621.367188,901.672485 340.948334,901.672485 60.018127,901.672485 C60.018127,874.735962 60.018127,847.808472 60.087051,820.413452 z"/>
	<path d="M901.914124,139.600372 C899.911194,140.376923 897.976135,140.961090 896.041016,140.961380 C619.616150,141.001907 343.191284,141.000000 66.766418,141.000000 C65.120384,141.000000 63.474350,141.000000 61.414803,141.000000 C61.414803,114.291328 61.414803,87.938530 61.414803,61.000008 C63.380108,61.000008 65.163544,61.000008 66.946983,61.000008 C343.205231,61.000004 619.463501,60.998878 895.721741,61.024525 C897.514954,61.024693 899.308228,61.395935 901.474487,61.760674 C901.892517,71.664337 901.937439,81.401230 901.619141,91.894058 C901.170654,100.708313 901.001160,108.767059 901.043152,116.824707 C901.058960,119.862068 901.564392,122.896866 901.846619,125.932838 C901.891724,130.333679 901.936890,134.734528 901.914124,139.600372 z"/>
	<path d="M901.914429,283.599304 C901.564514,285.808594 901.046021,287.548126 901.037415,289.290192 C900.969788,302.930573 901.000000,316.571472 901.000000,330.604370 C620.929077,330.604370 341.254669,330.604370 61.290066,330.604370 C61.290066,304.153992 61.290066,277.915741 61.290066,251.000000 C63.273060,251.000000 65.044456,251.000000 66.815849,251.000000 C343.125977,251.000000 619.436096,250.997772 895.746216,251.042679 C897.793335,251.043015 900.682678,249.780411 901.557922,253.680161 C901.893066,263.658905 901.937622,273.394806 901.914429,283.599304 z"/>
	<path d="M901.914429,475.599304 C901.564514,477.808472 901.046753,479.547852 901.037476,481.289917 C900.968323,494.263306 901.000000,507.237274 901.000000,520.603638 C620.941589,520.603638 341.277985,520.603638 61.307091,520.603638 C61.307091,494.190186 61.307091,467.952850 61.307091,441.357330 C341.016174,441.357330 620.559509,441.357330 900.520630,441.357330 C900.752441,442.608124 901.012085,444.008911 901.560059,445.666199 C901.893066,455.658691 901.937622,465.394714 901.914429,475.599304 z"/>
	<path d="M901.914429,667.599243 C901.564453,669.808411 901.047668,671.547668 901.037659,673.289795 C900.966858,685.596375 901.000000,697.903503 901.000000,710.603210 C620.949463,710.603210 341.292816,710.603210 61.318001,710.603210 C61.318001,684.213013 61.318001,657.976257 61.318001,631.369202 C341.116699,631.369202 620.784180,631.369202 900.659668,631.369202 C900.873413,633.485596 901.070374,635.436218 901.557983,637.654602 C901.893188,647.658447 901.937744,657.394531 901.914429,667.599243 z"/>
</svg>