<svg xmlns="http://www.w3.org/2000/svg" height="24px" viewBox="0 0 960 960" width="24px" fill="#374151">
	<path d="M50.156128,301.053162 C50.104088,299.224396 50.006718,297.395660 50.006535,295.566895 C49.998917,219.448181 50.000000,143.329453 50.000000,67.210739 C50.000000,65.384384 50.000000,63.558022 50.000000,61.018150 C183.462906,61.018150 316.790710,61.018150 450.567383,61.545406 C451.016235,141.626770 451.016235,221.180893 451.016235,301.000000 C448.244873,301.000000 446.420258,301.000000 444.595612,301.000000 C421.099152,301.000000 397.602722,300.996948 374.106262,301.000549 C266.122894,301.017090 158.139511,301.035461 50.156128,301.053162 z"/>
	<path d="M510.946838,61.156128 C512.775574,61.104088 514.604370,61.006592 516.433105,61.006489 C646.351257,60.999363 776.269409,61.000000 906.187561,61.000000 C907.976868,61.000000 909.766174,61.000000 911.981873,61.000000 C911.981873,140.984344 911.981873,220.551422 911.454590,300.567352 C777.710266,301.016205 644.493225,301.016205 510.946838,301.016205 C510.946838,220.445877 510.946838,140.800995 510.946838,61.156128 z"/>
	<path d="M451.117889,361.085938 C451.078583,390.412903 451.016510,419.739899 451.005157,449.066864 C450.986267,497.726288 451.000000,546.385742 451.000000,595.045166 C451.000000,596.847900 451.000000,598.650574 451.000000,600.724976 C317.298187,600.724976 183.915298,600.724976 50.018150,600.724976 C50.018150,521.069885 50.018150,441.475677 50.545406,361.432617 C181.092194,360.989166 311.111725,360.993958 441.131256,361.003601 C444.460144,361.003845 447.789001,361.057281 451.117889,361.085938 z"/>
	<path d="M911.843872,360.946899 C911.895935,362.776581 911.993225,364.606232 911.993408,366.435913 C912.001038,442.592773 912.000000,518.749634 912.000000,594.906494 C912.000000,596.722107 912.000000,598.537659 912.000000,600.675964 C778.394531,600.675964 645.009705,600.675964 510.986359,600.675964 C510.986359,521.173523 510.986359,441.590271 511.409180,361.517090 C551.283875,361.018127 590.735718,361.007935 630.187622,361.000214 C724.073059,360.981812 817.958435,360.964600 911.843872,360.946899 z"/>
	<path d="M451.000000,710.000000 C451.000000,773.794434 451.000000,837.088867 451.000000,900.691528 C317.376251,900.691528 184.004227,900.691528 50.315994,900.691528 C50.315994,821.048218 50.315994,741.332703 50.315994,661.308411 C183.623947,661.308411 316.995972,661.308411 451.000000,661.308411 C451.000000,677.319580 451.000000,693.409790 451.000000,710.000000 z"/>
	<path d="M511.000000,878.000000 C511.000000,805.540527 511.000000,733.581116 511.000000,661.310974 C644.618713,661.310974 777.990723,661.310974 911.681458,661.310974 C911.681458,740.946655 911.681458,820.662109 911.681458,900.688965 C778.381348,900.688965 645.009338,900.688965 511.000000,900.688965 C511.000000,893.355408 511.000000,885.927734 511.000000,878.000000 z"/>
</svg>